<svg xmlns="http://www.w3.org/2000/svg" width="1600" height="780" viewBox="0 0 1600 780" font-family="ui-monospace, SFMono-Regular, SF Mono, Menlo, Consolas, monospace">
  <defs>
    <pattern id="grid" width="40" height="40" patternUnits="userSpaceOnUse">
      <path d="M40 0H0V40" fill="none" stroke="#EFEDEA" stroke-width="1"/>
    </pattern>
    <linearGradient id="rule" x1="0" y1="0" x2="1" y2="0">
      <stop offset="0" stop-color="#EA580C" stop-opacity="0.9"/>
      <stop offset="1" stop-color="#EA580C" stop-opacity="0"/>
    </linearGradient>
  </defs>

  <rect width="1600" height="780" fill="#FBFAF9"/>
  <rect width="1600" height="780" fill="url(#grid)"/>

  <!-- corner ticks -->
  <path d="M20 44V20H44" fill="none" stroke="#EA580C" stroke-width="2"/>
  <path d="M1580 44V20h-24" fill="none" stroke="#EA580C" stroke-width="2"/>
  <path d="M20 736v24h24" fill="none" stroke="#EA580C" stroke-width="2"/>
  <path d="M1580 736v24h-24" fill="none" stroke="#EA580C" stroke-width="2"/>

  <!-- header -->
  <text x="48" y="74" fill="#1C1917" font-size="26" font-weight="600" letter-spacing="1">SYSTEM MAP</text>
  <text x="48" y="104" fill="#78716C" font-size="15" letter-spacing="1">what we run, layer by layer</text>
  <text x="1552" y="74" fill="#EA580C" font-size="15" letter-spacing="3" text-anchor="end">REDSTONE.MD</text>
  <text x="1552" y="104" fill="#A8A29E" font-size="15" letter-spacing="1" text-anchor="end">2026</text>
  <rect x="48" y="122" width="1504" height="1" fill="url(#rule)"/>

  <!-- band 1 -->
  <rect x="48" y="140" width="1504" height="100" rx="4" fill="#FFFFFF" stroke="#E4E2DE"/>
  <rect x="48" y="140" width="3" height="100" fill="#EA580C"/>
  <text x="76" y="176" fill="#78716C" font-size="12" letter-spacing="3">AGENT INFRASTRUCTURE</text>
  <text xml:space="preserve" x="76" y="212" fill="#1C1917" font-size="19">Continuum<tspan fill="#A8A29E">  ·  </tspan>Nodule<tspan fill="#A8A29E">  ·  </tspan>graft<tspan fill="#A8A29E">  ·  </tspan>Gouter<tspan fill="#A8A29E">  ·  </tspan>fence</text>
  <text x="1524" y="212" fill="#B7B2AC" font-size="14" text-anchor="end">memory · critique · routing</text>

  <!-- band 2 -->
  <rect x="48" y="254" width="1504" height="100" rx="4" fill="#FFFFFF" stroke="#E4E2DE"/>
  <rect x="48" y="254" width="3" height="100" fill="#EA580C"/>
  <text x="76" y="290" fill="#78716C" font-size="12" letter-spacing="3">AUTOMATION &amp; INTELLIGENCE</text>
  <text xml:space="preserve" x="76" y="326" fill="#1C1917" font-size="19">Agentium<tspan fill="#A8A29E">  ·  </tspan>Mapr<tspan fill="#A8A29E">  ·  </tspan>ConfAI<tspan fill="#A8A29E">  ·  </tspan>evolver</text>
  <text x="1524" y="326" fill="#B7B2AC" font-size="14" text-anchor="end">browsers · reverse engineering</text>

  <!-- band 3 -->
  <rect x="48" y="368" width="1504" height="100" rx="4" fill="#FFFFFF" stroke="#E4E2DE"/>
  <rect x="48" y="368" width="3" height="100" fill="#EA580C"/>
  <text x="76" y="404" fill="#78716C" font-size="12" letter-spacing="3">MESH &amp; TRANSPORT</text>
  <text xml:space="preserve" x="76" y="440" fill="#1C1917" font-size="19">moss<tspan fill="#A8A29E">  ·  </tspan>MossSpore<tspan fill="#A8A29E">  ·  </tspan>mosh<tspan fill="#A8A29E">  ·  </tspan>MossyMod</text>
  <text x="1524" y="440" fill="#B7B2AC" font-size="14" text-anchor="end">p2p · relays · clients</text>

  <!-- band 4 -->
  <rect x="48" y="482" width="1504" height="100" rx="4" fill="#FFFFFF" stroke="#E4E2DE"/>
  <rect x="48" y="482" width="3" height="100" fill="#EA580C"/>
  <text x="76" y="518" fill="#78716C" font-size="12" letter-spacing="3">SECURITY &amp; PRIVACY</text>
  <text xml:space="preserve" x="76" y="554" fill="#1C1917" font-size="19">veil<tspan fill="#A8A29E">  ·  </tspan>Doppel<tspan fill="#A8A29E">  ·  </tspan>shield</text>
  <text x="1524" y="554" fill="#B7B2AC" font-size="14" text-anchor="end">anti-dpi · tls identity</text>

  <!-- band 5 -->
  <rect x="48" y="596" width="1504" height="100" rx="4" fill="#FFFFFF" stroke="#E4E2DE"/>
  <rect x="48" y="596" width="3" height="100" fill="#EA580C"/>
  <text x="76" y="632" fill="#78716C" font-size="12" letter-spacing="3">RUNTIME &amp; STORAGE</text>
  <text xml:space="preserve" x="76" y="668" fill="#1C1917" font-size="19">rava<tspan fill="#A8A29E">  ·  </tspan>g3<tspan fill="#A8A29E">  ·  </tspan>Gale<tspan fill="#A8A29E">  ·  </tspan>trit.rs</text>
  <text x="1524" y="668" fill="#B7B2AC" font-size="14" text-anchor="end">jvm · object store · ui</text>

  <!-- footer -->
  <text xml:space="preserve" x="48" y="742" fill="#A8A29E" font-size="14" letter-spacing="2">Go<tspan fill="#D6D3CE">  /  </tspan>Rust<tspan fill="#D6D3CE">  /  </tspan>TypeScript<tspan fill="#D6D3CE">  /  </tspan>Bun<tspan fill="#D6D3CE">  /  </tspan>Java<tspan fill="#D6D3CE">  /  </tspan>C++</text>
  <text x="1552" y="742" fill="#A8A29E" font-size="14" letter-spacing="2" text-anchor="end">ENGINEERING THE UNSEEN</text>
</svg>
